<svg width="48" height="48" viewBox="0 0 48 48" fill="none" xmlns="http://www.w3.org/2000/svg">
<path d="M4.5 14C4.5 13.1716 5.17157 12.5 6 12.5H42C42.8284 12.5 43.5 13.1716 43.5 14C43.5 14.8284 42.8284 15.5 42 15.5H6C5.17157 15.5 4.5 14.8284 4.5 14Z" fill="#333333"/>
<path d="M4.5 24C4.5 23.1716 5.17157 22.5 6 22.5H42C42.8284 22.5 43.5 23.1716 43.5 24C43.5 24.8284 42.8284 25.5 42 25.5H6C5.17157 25.5 4.5 24.8284 4.5 24Z" fill="#333333"/>
<path d="M6 32.5C5.17157 32.5 4.5 33.1716 4.5 34C4.5 34.8284 5.17157 35.5 6 35.5H42C42.8284 35.5 43.5 34.8284 43.5 34C43.5 33.1716 42.8284 32.5 42 32.5H6Z" fill="#333333"/>
<path d="M4.5 14C4.5 13.1716 5.17157 12.5 6 12.5H42C42.8284 12.5 43.5 13.1716 43.5 14C43.5 14.8284 42.8284 15.5 42 15.5H6C5.17157 15.5 4.5 14.8284 4.5 14Z" stroke="#333333"/>
<path d="M4.5 24C4.5 23.1716 5.17157 22.5 6 22.5H42C42.8284 22.5 43.5 23.1716 43.5 24C43.5 24.8284 42.8284 25.5 42 25.5H6C5.17157 25.5 4.5 24.8284 4.5 24Z" stroke="#333333"/>
<path d="M6 32.5C5.17157 32.5 4.5 33.1716 4.5 34C4.5 34.8284 5.17157 35.5 6 35.5H42C42.8284 35.5 43.5 34.8284 43.5 34C43.5 33.1716 42.8284 32.5 42 32.5H6Z" stroke="#333333"/>
</svg>
