<svg width="48" height="48" viewBox="0 0 48 48" fill="none" xmlns="http://www.w3.org/2000/svg">
<path d="M22.5 43.9999C21.4 43.9999 20.2913 43.8746 19.174 43.6239C18.0567 43.3732 16.9153 43.0152 15.75 42.5499C16.15 38.5166 17.3167 34.7499 19.25 31.2499C21.1833 27.7499 23.6667 24.6666 26.7 21.9999C23.0333 23.8666 19.858 26.3332 17.174 29.3999C14.49 32.4666 12.6153 35.9666 11.55 39.8999C11.4167 39.7999 11.2913 39.6919 11.174 39.5759L10.8 39.1999C9.23334 37.6332 8.04134 35.8832 7.224 33.9499C6.40667 32.0166 5.99867 29.9999 6 27.8999C6 25.6332 6.45 23.4666 7.35 21.3999C8.25 19.3332 9.5 17.4999 11.1 15.8999C13.8 13.1999 17.3 11.4419 21.6 10.6259C25.9 9.80991 31.9333 9.73457 39.7 10.3999C40.3 18.3666 40.2 24.4419 39.4 28.6259C38.6 32.8099 36.8667 36.2346 34.2 38.8999C32.5667 40.5332 30.7413 41.7919 28.724 42.6759C26.7067 43.5599 24.632 44.0012 22.5 43.9999Z" fill="#333333"/>
</svg>
