<svg width="48" height="48" viewBox="0 0 48 48" fill="none" xmlns="http://www.w3.org/2000/svg">
<path d="M12 40C10.3334 40 8.91668 39.4167 7.75002 38.25C6.58335 37.0833 6.00002 35.6667 6.00002 34C4.90002 34 3.95802 33.608 3.17402 32.824C2.39002 32.04 1.99869 31.0987 2.00002 30V12C2.00002 10.9 2.39202 9.958 3.17602 9.174C3.96002 8.39 4.90135 7.99867 6.00002 8H30C31.1 8 32.042 8.392 32.826 9.176C33.61 9.96 34.0014 10.9013 34 12V16H39C39.3334 16 39.6334 16.0667 39.9 16.2C40.1667 16.3333 40.4 16.5333 40.6 16.8L45.6 23.45C45.7333 23.6167 45.8334 23.8 45.9 24C45.9667 24.2 46 24.4167 46 24.65V32C46 32.5667 45.808 33.042 45.424 33.426C45.04 33.81 44.5653 34.0013 44 34H42C42 35.6667 41.4167 37.0833 40.25 38.25C39.0834 39.4167 37.6667 40 36 40C34.3334 40 32.9167 39.4167 31.75 38.25C30.5834 37.0833 30 35.6667 30 34H18C18 35.6667 17.4167 37.0833 16.25 38.25C15.0834 39.4167 13.6667 40 12 40ZM12 36C12.5667 36 13.042 35.808 13.426 35.424C13.81 35.04 14.0014 34.5653 14 34C14 33.4333 13.808 32.958 13.424 32.574C13.04 32.19 12.5654 31.9987 12 32C11.4334 32 10.958 32.192 10.574 32.576C10.19 32.96 9.99869 33.4347 10 34C10 34.5667 10.192 35.042 10.576 35.426C10.96 35.81 11.4347 36.0013 12 36ZM36 36C36.5667 36 37.042 35.808 37.426 35.424C37.81 35.04 38.0014 34.5653 38 34C38 33.4333 37.808 32.958 37.424 32.574C37.04 32.19 36.5653 31.9987 36 32C35.4333 32 34.958 32.192 34.574 32.576C34.19 32.96 33.9987 33.4347 34 34C34 34.5667 34.192 35.042 34.576 35.426C34.96 35.81 35.4347 36.0013 36 36ZM34 26H42.5L38 20H34V26Z" fill="#333333"/>
</svg>
