<svg width="48" height="48" viewBox="0 0 48 48" fill="none" xmlns="http://www.w3.org/2000/svg">
<path fill-rule="evenodd" clip-rule="evenodd" d="M24 44C35.046 44 44 35.046 44 24C44 12.954 35.046 4 24 4C12.954 4 4 12.954 4 24C4 35.046 12.954 44 24 44ZM16.794 31.106C16.9114 30.9476 17.059 30.814 17.2281 30.7127C17.3972 30.6114 17.5847 30.5445 17.7797 30.5157C17.9748 30.4869 18.1736 30.4968 18.3648 30.5449C18.556 30.593 18.7358 30.6783 18.894 30.796C20.35 31.876 22.108 32.5 24 32.5C25.892 32.5 27.65 31.874 29.106 30.796C29.2637 30.6733 29.4444 30.5833 29.6373 30.5314C29.8303 30.4794 30.0317 30.4666 30.2297 30.4935C30.4277 30.5205 30.6183 30.5868 30.7903 30.6884C30.9624 30.7901 31.1124 30.9251 31.2315 31.0856C31.3506 31.246 31.4365 31.4286 31.4841 31.6227C31.5317 31.8168 31.54 32.0185 31.5085 32.2158C31.4771 32.4132 31.4065 32.6022 31.301 32.7719C31.1955 32.9416 31.0571 33.0885 30.894 33.204C28.9035 34.6922 26.4854 35.4976 24 35.5C21.5146 35.4976 19.0965 34.6922 17.106 33.204C16.7865 32.9671 16.5741 32.613 16.5156 32.2196C16.4571 31.8262 16.5572 31.4256 16.794 31.106ZM32 21C32 22.656 31.104 24 30 24C28.896 24 28 22.656 28 21C28 19.344 28.896 18 30 18C31.104 18 32 19.344 32 21ZM18 24C19.104 24 20 22.656 20 21C20 19.344 19.104 18 18 18C16.896 18 16 19.344 16 21C16 22.656 16.896 24 18 24Z" fill="#333333"/>
</svg>
